<svg width="20" height="20" viewBox="0 0 20 20" fill="none" xmlns="http://www.w3.org/2000/svg">
<path d="M16.6666 14V6V5.99726C16.6666 5.06566 16.6666 4.59958 16.4852 4.24341C16.3254 3.9298 16.0701 3.67482 15.7565 3.51503C15.3999 3.33337 14.9336 3.33337 14.0001 3.33337H6.00014C5.06672 3.33337 4.59966 3.33337 4.24314 3.51503C3.92954 3.67482 3.67476 3.9298 3.51497 4.24341C3.33331 4.59993 3.33331 5.06658 3.33331 6V14C3.33331 14.9334 3.33331 15.4002 3.51497 15.7567C3.67476 16.0703 3.92954 16.3252 4.24314 16.485C4.59966 16.6667 5.06672 16.6667 6.00014 16.6667H14.0001C14.9336 16.6667 15.3999 16.6667 15.7565 16.485C16.0701 16.3252 16.3254 16.0703 16.4852 15.7567C16.6666 15.4006 16.6666 14.9343 16.6666 14.0027V14Z" stroke="white" stroke-linecap="round" stroke-linejoin="round"/>
</svg>
