<svg width="20" height="20" viewBox="0 0 20 20" fill="none" xmlns="http://www.w3.org/2000/svg">
<path d="M6.66665 10L9.16665 12.5L13.3333 7.50004M16.6666 6V14C16.6666 14.9334 16.6668 15.4002 16.4852 15.7567C16.3254 16.0703 16.0701 16.3252 15.7565 16.485C15.3999 16.6667 14.9336 16.6667 14.0001 16.6667H6.00014C5.06672 16.6667 4.59966 16.6667 4.24314 16.485C3.92954 16.3252 3.67476 16.0703 3.51497 15.7567C3.33331 15.4002 3.33331 14.9334 3.33331 14V6C3.33331 5.06658 3.33331 4.59993 3.51497 4.24341C3.67476 3.9298 3.92954 3.67482 4.24314 3.51503C4.59966 3.33337 5.06672 3.33337 6.00014 3.33337H14.0001C14.9336 3.33337 15.3999 3.33337 15.7565 3.51503C16.0701 3.67482 16.3254 3.9298 16.4852 4.24341C16.6668 4.59993 16.6666 5.06658 16.6666 6Z" stroke="white" stroke-linecap="round" stroke-linejoin="round"/>
</svg>
