<svg width="24" height="24" viewBox="0 0 24 24" fill="none" xmlns="http://www.w3.org/2000/svg">
<path d="M7.35355 11.6464C7.15829 11.4512 6.84171 11.4512 6.64645 11.6464C6.45118 11.8417 6.45118 12.1583 6.64645 12.3536L7.35355 11.6464ZM11.9497 16.9497L11.5962 17.3033C11.7915 17.4986 12.108 17.4986 12.3033 17.3033L11.9497 16.9497ZM22.9103 6.6967C23.1056 6.50144 23.1056 6.18486 22.9104 5.98959C22.7151 5.79433 22.3985 5.79432 22.2033 5.98958L22.9103 6.6967ZM2.40336 11.6967C2.2081 11.5015 1.89151 11.5015 1.69625 11.6967C1.50099 11.892 1.50099 12.2086 1.69625 12.4038L2.40336 11.6967ZM6.646 17.3536C6.84126 17.5489 7.15784 17.5489 7.35311 17.3536C7.54837 17.1583 7.54837 16.8417 7.35311 16.6465L6.646 17.3536ZM17.9596 6.74699C18.1549 6.55172 18.1549 6.23514 17.9596 6.03988C17.7643 5.84462 17.4477 5.84462 17.2525 6.03988L17.9596 6.74699ZM11.9492 11.3432C11.7539 11.5384 11.7539 11.855 11.9492 12.0503C12.1444 12.2455 12.461 12.2455 12.6563 12.0503L11.9492 11.3432ZM6.64645 12.3536L11.5962 17.3033L12.3033 16.5962L7.35355 11.6464L6.64645 12.3536ZM12.3033 17.3033L22.9103 6.6967L22.2033 5.98958L11.5962 16.5962L12.3033 17.3033ZM1.69625 12.4038L6.646 17.3536L7.35311 16.6465L2.40336 11.6967L1.69625 12.4038ZM17.2525 6.03988L11.9492 11.3432L12.6563 12.0503L17.9596 6.74699L17.2525 6.03988Z" fill="#2D6AC8"/>
</svg>
